<svg width="60" height="62" viewBox="0 0 60 62" fill="none" xmlns="http://www.w3.org/2000/svg">
<path d="M21.9337 0C25.3943 2.2963e-05 28.2013 2.84015 28.2013 6.34173V12.6812C28.2013 16.1828 25.3943 19.0229 21.9337 19.0229H18.8009V21.4897H21.9337C25.3941 21.4897 28.2013 24.3277 28.2013 27.829V34.171C28.2013 37.6723 25.3941 40.5103 21.9337 40.5103H18.8009V42.977H21.9337C25.3943 42.977 28.2013 45.8173 28.2013 49.3187V55.6583C28.2013 59.1599 25.3943 62 21.9337 62H15.666C12.2057 61.9995 9.40046 59.1595 9.40046 55.6583V51.2563H6.26772C2.80708 51.2563 0 48.4163 0 44.9146V38.573C0.000546519 35.0718 2.80743 32.2333 6.26772 32.2333H9.40046V29.7667H6.26772C2.80743 29.7667 0.000541926 26.9282 0 23.427V17.0854C0 13.5838 2.80708 10.7437 6.26772 10.7437H9.40046V6.34173C9.40046 2.84045 12.2057 0.000509778 15.666 0H21.9337ZM43.5196 0C46.9802 0.000355926 49.7853 2.84036 49.7853 6.34173V10.7437H52.9202C56.3805 10.7443 59.1857 13.5842 59.1857 17.0854V23.427C59.1852 26.928 56.38 29.7662 52.9202 29.7667H49.7853V32.2333H52.9202C56.38 32.2338 59.1852 35.072 59.1857 38.573V44.9146C59.1857 48.4158 56.3805 51.2559 52.9202 51.2563H49.7853V55.6583C49.7853 59.1597 46.9802 61.9995 43.5196 62H37.2521C33.7916 61.9998 30.9865 59.1597 30.9865 55.6583V49.3187C30.9865 45.8173 33.7916 42.9772 37.2521 42.977H40.3847V40.5103H37.2521C33.7916 40.5101 30.9867 37.6721 30.9865 34.171V27.829C30.9867 24.3279 33.7916 21.4898 37.2521 21.4897H40.3847V19.0229H37.2521C33.7916 19.0227 30.9865 16.1827 30.9865 12.6812V6.34173C30.9865 2.84024 33.7916 0.000176815 37.2521 0H43.5196Z" fill="#2C1FEA"/>
</svg>
